<?xml version="1.0" encoding="UTF-8"?>
<svg version="1.1" viewBox="0 0 2048 1158" width="1280" height="1280" xmlns="http://www.w3.org/2000/svg">
<path transform="translate(407,217)" d="m0 0h35l32 3 29 5 27 7 24 8 24 10 21 11 18 11 16 11 16 12 14 12 8 7 22 22 9 11 12 15 10 15 13 21 13 25 13 32 8 26 5 21 5 31 2 29v28l-2 28-6 33-8 30-8 23-10 23-13 25-10 16-11 16-9 12-9 11-15 16-15 15-11 9-12 10-17 12-16 10-16 9-21 11-23 9-25 8-39 9-12 2-24 2h-38l1-5 15-10 11-10 8-7 14-15 9-11 14-19 12-19 12-23 8-20 6-18 9-35 6-31 3-28 1-25-3-4-7-1-2 2-1 20-6 38-7 27-7 19-9 19-14 23-11 13-9 10-10 10-11 9-6 7-6 4-5-1-11-13-13-13-10-8-14-8-15-5-13-3-8-1h-24l-17 3-27 8-24 10-21 10-16 9-1-2 10-21 9-23 7-24 5-30 1-10v-41l-3-27-6-21-5-13-11-23-13-22-9-12-11-14-12-13-10-9-16-12-15-11-4-3 1-4 9-8 17-12 19-12 20-11 25-10 22-5 23-3h46l31 4 20 4 32 9 3-1-1-4-9-6-15-6-21-7-22-5-21-3-13-1h-47l-27 3-26 5-16 5-25 10-24 13-18 13-12 9-12 11-13 11h-2l3-12 8-27 10-28 13-29 12-21 12-18 9-12 10-13 12-14 23-23 11-9 15-12 18-13 22-13 23-12 27-11 25-8 26-6 23-4zm45 93-19 3-19 5-19 7-16 9-12 8-14 11-10 9-17 17 1 3 30 10 21 11 13 10 9 9 7 9 10 15 8 16 5 16 3 20 1 13v22l-2 25-5 30-7 28-12 38-7 20-7 16 5-1 12-7 30-20 20-12 16-9 15-6 21-6 15-2h13l16 3 11 6 9 8 9 12 6 12 3 7 4 2 10-9 8-8 8-7 12-13 11-14 12-18 8-16 5-12 7-25 2-12 1-18-3 1-4 9-4 15-11 22-11 16-11 13-11 12-8 7-6-1-9-11-12-11-12-7-14-4-9-1h-14l-21 3-21 6-23 10-27 14-3 1 1-5 6-12 8-28 4-25v-37l-3-19-5-16-8-19-8-15-10-15-11-13-13-13-11-9-27-21 3-8 18-18 15-10 17-8 16-5 16-3 9-1h50l25 3 21 5 13 4v-2l-12-6-25-8-24-4-13-1zm164 28-6 3-3 4-1 5v8l3 9 5 4 10 2 7 4 2 2-1 5-1 1v8l2 6 11 4 9 3 4 5 2 8-1 6-4 4v2l-4 2-5 1-6 1-5 5-1 7v13l5 6 6 3 3-1h7l3 4v7l-2 9 2 6 5 5 5 1h8l5-3 3-3 1-4v-8l-3-12-2-3-13 1h-2l-1-3-3-2-3-12v-7l2-4-1-3h8l13-4 4-3 1-3v-15l-3-6-2-2-15-1-5-8-1-3v-11l-4-6-6-3-11-3-3-3-3-9 1-5v-7l-4-5-6-2z" fill="#FEFEFE"/>
<path transform="translate(1356,529)" d="m0 0h12l25 2 18 4 18 7 13 8 10 9 9 10 9 17 5 17 2 16 1 29 1 177 1 8 8 2h15l7-2h6l2 5v10l-1 9-4 5-12 3h-35l-9-4-5-4-7-11-3-11-2-12h-3l-10 8-11 9-11 7-17 9-22 8-19 4-16 2h-27l-19-3-21-7-13-7-11-9-9-9-9-14-6-13-4-16v-30l4-16 8-16 4-6 11-12 14-10 19-10 15-5 36-7 35-5 30-4 25-5 13-5 8-6 3-5 2-13v-12l-3-19-8-16-8-9-11-7-12-5-14-3-9-1h-32l-19 3-13 4-15 8-6 5-4 5h-2l-2 4-10 19-6 22-1 2h-18l-18-1-2-3 2-11 6-20 6-13 7-12 7-9 7-8 15-11 15-8 17-6 14-3 16-2zm81 165-29 7-27 5-23 3-30 3-21 4-20 7-9 5-10 8-8 11-5 11-3 13v16l3 12 6 11 9 10 10 7 11 5 15 4 9 1h17l23-3 15-4 20-8 16-10 12-11 8-9 9-17 3-12 2-26v-43z" fill="#FEFEFE"/>
<path transform="translate(1852,529)" d="m0 0 22 1 18 3 16 5 16 8 11 7 13 11 9 9 10 14 9 16 8 20 7 25 3 20 2 24v16l-1 1-8 1-243 1 1 2 3 27 4 17 6 17 8 16 8 11 7 8 13 10 17 9 15 5 11 2 18 1 20-2 16-4 16-7 14-9 13-13 8-14 5-16 3-7 39-1 5 3-4 10-5 11-8 17-8 12-9 11-15 15-12 9-14 7-18 6-20 4-17 2h-28l-22-3-20-6-16-7-16-10-15-14-9-10-11-18-8-17-6-18-5-25-3-31v-18l2-25 4-21 7-21 12-25 12-18 11-13 13-12 13-9 15-8 19-7 24-4zm-11 35-20 4-13 5-15 10-12 11-8 9-11 18-8 19-5 16-3 14v5l3 2h205l2-4-2-19-4-17-6-16-8-16-10-13-7-7-10-7-16-8-13-4-12-2z" fill="#FEFEFE"/>
<path transform="translate(1021,530)" d="m0 0h40l21 3 16 5 18 8 14 10 12 11 10 13 12 23 6 18 3 13v5l-3 1-29 1-5-2-3-5-8-18-8-14-12-14-12-9-16-8-13-4-12-2h-25l-20 4-15 6-14 9-6 6h-2l-2 4-7 8-9 14-8 16-6 19-5 23-2 23v15l2 18 4 20 8 24 9 17 10 13 9 9 13 9 14 7 17 5 19 2 17-1 17-3 16-6 11-6 13-10 8-9 8-13 7-18 2-7v-8l3-5h39l1 1-1 9-8 27-7 16-8 12-11 14-11 11-13 10-16 8-18 6-25 5-10 1h-30l-21-3-20-6-19-9-14-10-12-11-11-13-9-14-10-21-7-21-4-20-2-16v-48l3-22 8-27 8-19 10-17 8-11 11-13 12-11 18-12 19-9 19-5z" fill="#FEFEFE"/>
<path transform="translate(1057,327)" d="m0 0h32l7 2 2 7 8 52 3 13h2l4-16 5-24 6-22 2-9 2-3h27l11 1 2 3 5 25 5 23 4 17 3 3 2-11 9-47 2-13 3-1h33l2 1-1 9-15 84-8 37-3 12-3 2h-30l-5-2-3-5-5-16-9-36-4-19-3-7-5 16-13 51-5 15-3 3h-29l-7-2-3-6-8-38-10-52-7-36z" fill="#FEFEFE"/>
<path transform="translate(1684,529)" d="m0 0h8l4 2 1 5v30l-2 3-27 4-18 5-13 7-13 10-11 14-10 18-8 23-3 17-1 11-2 183-3 1h-28l-5-2-2-5v-175l1-141 1-1h32l4 2 1 4-1 50 9-12 11-16 11-12 11-9 12-7 15-5z" fill="#FEFEFE"/>
<path transform="translate(927,327)" d="m0 0h65l19 2 12 6 7 7 7 11 5 11 4 15 1 5 1 23-2 17-5 15-7 11-9 10-8 6-9 3-15 2-21 1h-42l-3-3zm45 33-4 2v76l3 1 16-1 14-7 3-7 2-20v-10l-2-15-3-9-6-7-5-2-8-1z" fill="#FEFEFE"/>
<path transform="translate(1253,327)" d="m0 0h65l14 1 10 3 9 6 7 10 4 13 1 17-2 12-5 10-9 10-12 6-9 2-10 1-24 1 1 13v37l-2 2h-36l-3-5v-125zm46 27-4 2-3 9v17l3 6 6 2 10-1 8-4 4-5v-13l-3-6-5-4-10-3z" fill="#FEFEFE"/>
</svg>
